# xmcd
#
# Track frame offsets: 
#        150
#        17557
#        33206
#        51087
#        68271
#        91355
#        105868
#        126870
#        149946
#        168649
#        188144
#        202334
#        221236
#        235878
#        248976
#        264308
#        275000
#
# Disc length: 3850 seconds
#
# Revision: 0
# Processed by: cddbd v1.5.1PL2 Copyright (c) Steve Scherf et al.
# Submitted via: ExactAudioCopy v0.95a5
#
DISCID=fd0f0811
DTITLE=Countdown Singers - 50 Country Love Songs 3 of 3
DYEAR=2004
DGENRE=Country
TTITLE0=Baby Now That I Found You
TTITLE1=It Must Be Love
TTITLE2=If You See Him - If You See Her
TTITLE3=Livin' On Love
TTITLE4=Now That I Found You
TTITLE5=Coyboy Love
TTITLE6=From This Moment On
TTITLE7=To Be Love By You
TTITLE8=When I Said I Do
TTITLE9=I'll Still Love You More
TTITLE10=How Forever Feels
TTITLE11=Breathe
TTITLE12=Valentine
TTITLE13=Kiss This
TTITLE14=Passionate Kisses
TTITLE15=Hello LOVE
TTITLE16=Love Without End Amen
EXTD=
EXTT0=
EXTT1=
EXTT2=
EXTT3=
EXTT4=
EXTT5=
EXTT6=
EXTT7=
EXTT8=
EXTT9=
EXTT10=
EXTT11=
EXTT12=
EXTT13=
EXTT14=
EXTT15=
EXTT16=
PLAYORDER=
